<svg width="49" height="49" viewBox="0 0 49 49" fill="none" xmlns="http://www.w3.org/2000/svg">
<g clip-path="url(#clip0_595_6775)">
<path d="M24.1857 42.653C33.8325 42.653 41.6527 34.8371 41.6527 25.1956C41.6527 15.5542 33.8325 7.73828 24.1857 7.73828C14.539 7.73828 6.71875 15.5542 6.71875 25.1956C6.71875 34.8371 14.539 42.653 24.1857 42.653Z" fill="#FD4130"/>
<path d="M41.9434 19.641C41.859 19.6889 41.7717 19.7367 41.6788 19.7873C41.1411 20.0771 40.5472 20.3782 39.9222 20.6736C39.2945 18.5016 38.2501 16.5575 36.8989 14.9032C34.9369 17.2778 32.744 19.8689 29.5575 21.3826C29.3351 20.592 29.1437 19.9449 28.9691 19.3625L28.9213 19.2078C31.5843 17.8348 33.4928 15.5222 35.3507 13.2742V13.2574C32.6061 10.7196 29.0311 9.161 25.2336 8.93311C25.152 8.74743 25.0732 8.56737 24.9944 8.38731C24.7917 7.93153 24.5834 7.47013 24.3694 7.01998L24.209 6.67393C30.2584 6.65423 35.9475 9.62522 39.4043 14.5122C39.6914 14.9173 39.9645 15.3337 40.2178 15.7669C40.6288 16.4619 40.9976 17.1905 41.3185 17.9474C41.4958 18.3666 41.6619 18.797 41.8111 19.2359C41.8561 19.371 41.9012 19.5032 41.9434 19.6382V19.641Z" fill="#232323"/>
<path d="M27.4705 33.6016C27.5972 34.2909 27.7126 34.9492 27.8111 35.5625C27.828 35.6638 27.8449 35.7651 27.859 35.8664C25.3846 36.9636 22.3838 38.6601 19.0819 40.6183C22.0123 41.6086 25.2579 41.7774 28.4642 40.9249C28.5149 41.6339 28.543 42.2838 28.5515 42.8634C28.5515 42.9816 28.5543 43.0941 28.5515 43.2038C28.0279 43.3276 27.5015 43.4289 26.9779 43.5049C26.1672 43.6286 25.3593 43.6933 24.557 43.7046C24.0616 43.713 23.5661 43.7018 23.0735 43.668C16.7623 43.2573 10.9944 39.6111 7.95703 33.9842C8.24979 33.9645 8.53692 33.9448 8.82123 33.9195C9.15622 33.8942 9.49401 33.8632 9.84589 33.8266C10.0317 33.8069 10.2203 33.7872 10.4117 33.7647C11.9318 36.2209 14.0684 38.1903 16.5484 39.5267C20.8018 36.9833 24.4613 34.8676 27.4621 33.6016H27.4705Z" fill="#232323"/>
<path d="M24.8879 22.6444C21.8055 22.9202 18.8132 22.214 15.6829 21.4769C13.4562 20.9536 11.162 20.4134 8.76085 20.2249C7.86287 23.013 7.70523 26.0684 8.45402 29.1041C7.75872 29.1603 7.10001 29.1969 6.49479 29.2138C6.39063 29.2138 6.28929 29.2194 6.19077 29.2194C6.1598 29.0816 6.12884 28.9437 6.1035 28.803C6.01342 28.3473 5.93742 27.8943 5.88393 27.4413C5.77978 26.6254 5.73474 25.8095 5.74318 25.0021C5.74881 24.5013 5.77415 24.0033 5.81919 23.5082C6.3287 18.0107 9.29288 12.9775 13.8701 9.86863C14.2754 9.59292 14.692 9.33127 15.1227 9.08931C15.8152 8.69543 16.5415 8.34375 17.2959 8.03709C17.7153 7.86828 18.146 7.71073 18.5823 7.57287C18.7709 7.51098 18.9595 7.45471 19.151 7.39844C19.1988 7.48847 19.2495 7.58412 19.3002 7.68259C19.5817 8.21152 19.8716 8.79953 20.1672 9.43536C20.1306 9.4438 20.094 9.45224 20.0574 9.4635C15.3226 10.7324 11.6321 13.9734 9.6335 18.0614C11.9362 18.3005 14.0953 18.8097 16.198 19.3049C18.9764 19.9576 21.631 20.585 24.2461 20.4471C24.4657 21.1618 24.6824 21.9017 24.8935 22.6444H24.8879Z" fill="#232323"/>
<path d="M42.791 24.6562C42.9909 31.5238 39.3202 37.9835 33.3411 41.3371C33.3214 40.9657 33.2961 40.5747 33.2623 40.1723C33.2426 39.936 33.2229 39.6969 33.1976 39.4605C33.1779 39.2608 33.1582 39.0582 33.1385 38.8528C34.971 37.6628 36.5221 36.1266 37.7241 34.3654C35.6748 34.2585 33.9717 34.2951 32.5389 34.4779C32.4291 33.8083 32.3024 33.0881 32.1504 32.2807C34.0055 32.0331 36.2321 32.0134 38.9655 32.2075C39.9282 30.1987 40.4828 27.9845 40.5559 25.7028C40.7305 25.6241 40.9078 25.5453 41.0795 25.4693C41.3976 25.3258 41.7073 25.1824 42.0057 25.0389C42.2675 24.9151 42.5264 24.7885 42.7882 24.6591L42.791 24.6562Z" fill="#232323"/>
<path d="M47.9565 17.816C48.238 18.8654 47.9565 20.5479 42.6953 23.246C42.3069 23.4429 41.8931 23.6483 41.4511 23.8593C41.1555 24 40.8515 24.1378 40.5419 24.2813C37.5749 25.6177 33.9379 26.9569 29.9631 28.1779C30.3009 29.655 30.605 31.0983 30.8668 32.4965C31.0075 33.2449 31.1398 33.9764 31.2552 34.6938C31.5423 36.4297 31.7591 38.0728 31.8999 39.5808C31.9224 39.8171 31.9421 40.0506 31.9618 40.2813C32.0125 40.8918 32.0462 41.4601 32.0659 41.9862C32.2996 47.6075 31.0103 48.6569 29.98 48.9326C28.3473 49.3687 26.6189 47.706 24.564 43.7053C25.3663 43.694 26.1742 43.6293 26.9849 43.5055C28.3079 45.911 29.1074 46.5525 29.3889 46.7156C29.6 46.3583 29.8928 45.2526 29.8562 42.8415C29.8477 42.1747 29.8111 41.4067 29.7408 40.5261C29.7182 40.2616 29.6957 39.9887 29.6676 39.7074C29.5381 38.3569 29.3467 36.8996 29.0961 35.355C28.9807 34.6263 28.8484 33.8779 28.7048 33.1155C28.4459 31.7257 28.1475 30.2852 27.8125 28.8137C27.0243 29.0416 26.2248 29.2639 25.4198 29.4805C19.6884 31.0167 14.1626 32.0858 9.72338 32.5303C9.38277 32.5641 9.0506 32.595 8.72406 32.6203C8.23707 32.6597 7.77259 32.6907 7.33909 32.7132C1.43324 33.0058 0.349473 31.6891 0.0679738 30.6397C-0.385239 28.9488 1.41917 27.1566 5.74299 25.0015C5.73454 25.809 5.77958 26.6221 5.88092 27.438C3.15883 28.8841 2.46071 29.7506 2.28618 30.0488C2.66058 30.2711 3.85976 30.5834 6.52555 30.5103C7.19552 30.4906 7.95838 30.4484 8.82258 30.3752C8.97741 30.3611 9.13786 30.3471 9.29832 30.3302C13.6503 29.911 19.1705 28.8447 24.8399 27.3254C25.6675 27.1032 26.4866 26.8753 27.2973 26.6418C27.0947 25.8231 26.8835 25.0015 26.6612 24.1744C26.5063 23.6005 26.3515 23.0321 26.1911 22.4666C25.9856 21.738 25.7744 21.0177 25.5605 20.3087C24.2938 16.1195 22.8891 12.2736 21.4957 9.21818L21.4675 9.15066C21.1072 8.36289 20.7666 7.6736 20.4513 7.07434C19.086 4.4691 18.1458 3.51253 17.7489 3.28746C17.5716 3.59412 17.1465 4.69699 17.2957 8.03372C16.5413 8.34039 15.8178 8.69207 15.1225 9.08595C14.6778 2.52502 16.0543 1.36588 17.1521 1.07047C18.25 0.775063 19.9671 1.08173 22.7877 6.7311C22.92 6.99838 23.058 7.27972 23.1959 7.57513C23.3986 8.00278 23.6041 8.45011 23.8068 8.91151C25.1608 11.9669 26.5035 15.6891 27.7252 19.7404C27.9392 20.4466 28.1475 21.164 28.353 21.8871C28.5106 22.4498 28.6682 23.0209 28.8231 23.5948C29.0398 24.4023 29.2481 25.2069 29.4452 26.0031C33.3524 24.7962 36.9302 23.4739 39.81 22.1628C39.9592 22.0953 40.1027 22.0277 40.2435 21.963C41.0317 21.5945 41.7129 21.2512 42.3012 20.9333C44.6461 19.6645 45.5272 18.7923 45.7411 18.4153C45.4428 18.2437 44.4068 17.8442 41.3244 17.9511C41.0035 17.1943 40.6348 16.4656 40.2238 15.7707C46.535 15.3852 47.6694 16.7413 47.9593 17.8188L47.9565 17.816Z" fill="#232323"/>
<path d="M36.9017 8.76149C35.4745 7.63049 33.8841 6.71331 32.1895 6.0409L36.9017 3.32031V8.75868V8.76149Z" fill="#FD4130"/>
<path d="M11.6348 41.623C13.062 42.754 14.6524 43.6712 16.3471 44.3436L11.6348 47.0642V41.6259V41.623Z" fill="#FD4130"/>
<path d="M40.707 37.8191C41.8387 36.3927 42.7563 34.8031 43.4291 33.1094L46.1512 37.8191H40.7098H40.707Z" fill="#FD4130"/>
<path d="M7.82895 12.5664C6.69733 13.9928 5.77964 15.5824 5.10686 17.2761L2.38477 12.5664H7.82614H7.82895Z" fill="#FD4130"/>
</g>
<defs>
<clipPath id="clip0_595_6775">
<rect width="49" height="49.0003" fill="white"/>
</clipPath>
</defs>
</svg>
